<svg width="40" height="40" viewBox="0 0 40 40" fill="none" xmlns="http://www.w3.org/2000/svg">
<path d="M22.2222 0H17.7778V22.2222H22.2222V0ZM32.9556 4.82222L29.8 7.97778C33.3111 10.8 35.5556 15.1333 35.5556 20C35.5556 28.6 28.6 35.5556 20 35.5556C11.4 35.5556 4.44444 28.6 4.44444 20C4.44444 15.1333 6.68889 10.8 10.1778 7.95556L7.04444 4.82222C2.73333 8.48889 0 13.9111 0 20C0 31.0444 8.95556 40 20 40C31.0444 40 40 31.0444 40 20C40 13.9111 37.2667 8.48889 32.9556 4.82222Z" fill="#2C2C2C"/>
</svg>
